<svg width="24" height="24" viewBox="0 0 24 24" fill="none" xmlns="http://www.w3.org/2000/svg">
<path d="M17.553 16.75C16.1465 15.3436 14.239 14.5536 12.25 14.5536C10.261 14.5536 8.3535 15.3436 6.947 16.75M18 3.80399C16.6219 3.00837 14.9842 2.79277 13.4472 3.20459C11.9102 3.61642 10.5997 4.62195 9.804 5.99999L20.196 12C20.9916 10.6219 21.2072 8.98423 20.7954 7.4472C20.3836 5.91016 19.378 4.59966 18 3.80399ZM18 3.80399C18.957 4.35599 18.39 7.12999 16.732 9.99999M18 3.80399C17.043 3.25199 14.925 5.12999 13.268 7.99999M15 8.99999L12 14.196M3 19.25C3.31129 19.0952 3.65249 19.0099 4 19C4.3895 18.9918 4.77512 19.0786 5.12358 19.2528C5.47203 19.4271 5.77283 19.6835 6 20C6.22717 20.3165 6.52797 20.5729 6.87642 20.7471C7.22488 20.9214 7.6105 21.0081 8 21C8.3895 21.0081 8.77512 20.9214 9.12358 20.7471C9.47203 20.5729 9.77283 20.3165 10 20C10.2272 19.6835 10.528 19.4271 10.8764 19.2528C11.2249 19.0786 11.6105 18.9918 12 19C12.3895 18.9918 12.7751 19.0786 13.1236 19.2528C13.472 19.4271 13.7728 19.6835 14 20C14.2272 20.3165 14.528 20.5729 14.8764 20.7471C15.2249 20.9214 15.6105 21.0081 16 21C16.3895 21.0081 16.7751 20.9214 17.1236 20.7471C17.472 20.5729 17.7728 20.3165 18 20C18.2272 19.6835 18.528 19.4271 18.8764 19.2528C19.2249 19.0786 19.6105 18.9918 20 19C20.3475 19.0099 20.6887 19.0952 21 19.25" stroke="#424242" stroke-linecap="round" stroke-linejoin="round"/>
</svg>
