<svg width="14" height="14" viewBox="0 0 14 14" fill="none" xmlns="http://www.w3.org/2000/svg">
<path d="M7.68539 0.333332C8.43539 0.335332 8.81606 0.339332 9.14472 0.348665L9.27406 0.353332C9.42339 0.358665 9.57072 0.365332 9.74872 0.373332C10.4581 0.406665 10.9421 0.518665 11.3667 0.683332C11.8067 0.852665 12.1774 1.082 12.5481 1.452C12.8871 1.78526 13.1494 2.18839 13.3167 2.63333C13.4814 3.058 13.5934 3.542 13.6267 4.252C13.6347 4.42933 13.6414 4.57667 13.6467 4.72667L13.6507 4.856C13.6607 5.184 13.6647 5.56467 13.6661 6.31467L13.6667 6.812V7.68533C13.6684 8.1716 13.6633 8.65787 13.6514 9.144L13.6474 9.27333C13.6421 9.42333 13.6354 9.57067 13.6274 9.748C13.5941 10.458 13.4807 10.9413 13.3167 11.3667C13.1498 11.8118 12.8875 12.2151 12.5481 12.548C12.2147 12.8869 11.8116 13.1492 11.3667 13.3167C10.9421 13.4813 10.4581 13.5933 9.74872 13.6267C9.59054 13.6341 9.43231 13.6408 9.27406 13.6467L9.14472 13.6507C8.81606 13.66 8.43539 13.6647 7.68539 13.666L7.18806 13.6667H6.31539C5.8289 13.6683 5.34241 13.6632 4.85606 13.6513L4.72673 13.6473C4.56847 13.6413 4.41024 13.6344 4.25206 13.6267C3.54273 13.5933 3.05873 13.4813 2.63339 13.3167C2.18851 13.1496 1.78554 12.8872 1.45273 12.548C1.11342 12.2149 0.850875 11.8117 0.683392 11.3667C0.518726 10.942 0.406726 10.458 0.373392 9.748C0.365965 9.58981 0.359298 9.43159 0.353392 9.27333L0.350059 9.144C0.337774 8.65788 0.332218 8.17161 0.333392 7.68533V6.31467C0.331532 5.8284 0.336421 5.34213 0.348059 4.856L0.352726 4.72667C0.358059 4.57667 0.364726 4.42933 0.372726 4.252C0.406059 3.542 0.518059 3.05867 0.682726 2.63333C0.850135 2.18793 1.11321 1.78468 1.45339 1.452C1.78612 1.11298 2.18882 0.850657 2.63339 0.683332C3.05873 0.518665 3.54206 0.406665 4.25206 0.373332C4.42939 0.365332 4.57739 0.358665 4.72673 0.353332L4.85606 0.349332C5.34219 0.337487 5.82846 0.332376 6.31473 0.333999L7.68539 0.333332ZM7.00006 3.66667C6.116 3.66667 5.26816 4.01785 4.64304 4.64298C4.01792 5.2681 3.66673 6.11594 3.66673 7C3.66673 7.88405 4.01792 8.7319 4.64304 9.35702C5.26816 9.98214 6.116 10.3333 7.00006 10.3333C7.88411 10.3333 8.73196 9.98214 9.35708 9.35702C9.9822 8.7319 10.3334 7.88405 10.3334 7C10.3334 6.11594 9.9822 5.2681 9.35708 4.64298C8.73196 4.01785 7.88411 3.66667 7.00006 3.66667ZM7.00006 5C7.2627 4.99996 7.52278 5.05164 7.76545 5.15211C8.00812 5.25258 8.22862 5.39986 8.41437 5.58555C8.60012 5.77124 8.74747 5.99169 8.84802 6.23432C8.94857 6.47696 9.00035 6.73702 9.00039 6.99967C9.00044 7.26231 8.94875 7.52239 8.84828 7.76506C8.74781 8.00773 8.60053 8.22823 8.41484 8.41398C8.22916 8.59972 8.0087 8.74708 7.76607 8.84763C7.52343 8.94818 7.26337 8.99996 7.00073 9C6.47029 9 5.96158 8.78929 5.58651 8.41421C5.21144 8.03914 5.00073 7.53043 5.00073 7C5.00073 6.46957 5.21144 5.96086 5.58651 5.58578C5.96158 5.21071 6.47029 5 7.00073 5M10.5007 2.66667C10.2797 2.66667 10.0677 2.75446 9.91147 2.91074C9.75519 3.06702 9.66739 3.27899 9.66739 3.5C9.66739 3.72101 9.75519 3.93297 9.91147 4.08925C10.0677 4.24553 10.2797 4.33333 10.5007 4.33333C10.7217 4.33333 10.9337 4.24553 11.09 4.08925C11.2463 3.93297 11.3341 3.72101 11.3341 3.5C11.3341 3.27899 11.2463 3.06702 11.09 2.91074C10.9337 2.75446 10.7217 2.66667 10.5007 2.66667Z" fill="#424242"/>
</svg>
