<svg width="16" height="20" viewBox="0 0 16 20" fill="none" xmlns="http://www.w3.org/2000/svg">
<path d="M6.831 18.4123L1.456 11.5023C0.848 10.7193 0.848 9.27926 1.456 8.50226L6.831 1.59126C6.96658 1.40901 7.1429 1.26098 7.34587 1.159C7.54884 1.05702 7.77285 1.00391 8 1.00391C8.22715 1.00391 8.45116 1.05702 8.65413 1.159C8.8571 1.26098 9.03342 1.40901 9.169 1.59126L14.544 8.50126C15.152 9.28426 15.152 10.7243 14.544 11.5013L9.169 18.4123C9.03342 18.5945 8.8571 18.7425 8.65413 18.8445C8.45116 18.9465 8.22715 18.9996 8 18.9996C7.77285 18.9996 7.54884 18.9465 7.34587 18.8445C7.1429 18.7425 6.96658 18.5945 6.831 18.4123Z" stroke="#3D708F" stroke-linecap="round" stroke-linejoin="round"/>
</svg>
