<svg width="36" height="48" viewBox="0 0 36 48" fill="none" xmlns="http://www.w3.org/2000/svg">
<path d="M13.502 19.4228C16.104 21.5278 19.897 21.5278 22.498 19.4228C25.1 17.3178 25.76 13.7148 24.064 10.8768L19.174 3.61678C18.754 2.99178 17.887 2.81378 17.238 3.21978C17.0751 3.32201 16.9354 3.45725 16.828 3.61678L11.935 10.8768C10.24 13.7148 10.9 17.3178 13.502 19.4228Z" stroke="#5F5F5F" stroke-linecap="round" stroke-linejoin="round"/>
<path d="M2.70925 43H0.740501L4.32502 32.8182H6.60201L10.1915 43H8.22275L5.50328 34.9062H5.42374L2.70925 43ZM2.77388 39.0078H8.1432V40.4893H2.77388V39.0078ZM14.5416 46.0227C13.8953 46.0227 13.3402 45.9349 12.8762 45.7592C12.4121 45.5869 12.0393 45.3549 11.7575 45.0632C11.4758 44.7715 11.2803 44.4484 11.1709 44.0938L12.7916 43.701C12.8646 43.8501 12.9706 43.9976 13.1098 44.1435C13.249 44.2926 13.4363 44.4152 13.6716 44.5114C13.9102 44.6108 14.2102 44.6605 14.5715 44.6605C15.0819 44.6605 15.5045 44.5362 15.8392 44.2876C16.174 44.0424 16.3414 43.638 16.3414 43.0746V41.6278H16.2519C16.1591 41.8134 16.0232 42.004 15.8442 42.1996C15.6685 42.3951 15.4349 42.5592 15.1432 42.6918C14.8548 42.8243 14.4919 42.8906 14.0544 42.8906C13.4678 42.8906 12.9358 42.7531 12.4585 42.478C11.9846 42.1996 11.6067 41.7853 11.325 41.2351C11.0466 40.6816 10.9074 39.9889 10.9074 39.157C10.9074 38.3184 11.0466 37.6108 11.325 37.0341C11.6067 36.4541 11.9862 36.0149 12.4635 35.7166C12.9408 35.415 13.4727 35.2642 14.0594 35.2642C14.5068 35.2642 14.8747 35.3404 15.1631 35.4929C15.4548 35.642 15.6868 35.8227 15.8591 36.0348C16.0315 36.2436 16.1624 36.4408 16.2519 36.6264H16.3513V35.3636H18.1262V43.1243C18.1262 43.7772 17.9704 44.3175 17.6588 44.745C17.3473 45.1726 16.9214 45.4924 16.3811 45.7045C15.8409 45.9167 15.2277 46.0227 14.5416 46.0227ZM14.5566 41.4787C14.9377 41.4787 15.2625 41.3859 15.531 41.2003C15.7994 41.0147 16.0033 40.7479 16.1425 40.3999C16.2817 40.0518 16.3513 39.6342 16.3513 39.147C16.3513 38.6664 16.2817 38.2455 16.1425 37.8842C16.0066 37.523 15.8044 37.2429 15.536 37.044C15.2708 36.8419 14.9443 36.7408 14.5566 36.7408C14.1555 36.7408 13.8208 36.8452 13.5523 37.054C13.2838 37.2628 13.0816 37.5495 12.9458 37.9141C12.8099 38.2753 12.7419 38.6863 12.7419 39.147C12.7419 39.6143 12.8099 40.0237 12.9458 40.375C13.085 40.723 13.2888 40.9948 13.5573 41.1903C13.829 41.3826 14.1621 41.4787 14.5566 41.4787ZM24.8378 39.7884V35.3636H26.6375V43H24.8925V41.6428H24.8129C24.6406 42.0703 24.3572 42.42 23.9628 42.6918C23.5717 42.9635 23.0895 43.0994 22.5161 43.0994C22.0156 43.0994 21.5731 42.9884 21.1887 42.7663C20.8075 42.541 20.5092 42.2145 20.2938 41.7869C20.0783 41.3561 19.9706 40.8357 19.9706 40.2259V35.3636H21.7703V39.9474C21.7703 40.4313 21.9029 40.8158 22.1681 41.1009C22.4332 41.3859 22.7812 41.5284 23.2121 41.5284C23.4772 41.5284 23.7341 41.4638 23.9827 41.3345C24.2313 41.2053 24.4351 41.013 24.5942 40.7578C24.7566 40.4993 24.8378 40.1761 24.8378 39.7884ZM30.6856 43.1541C30.2017 43.1541 29.7659 43.0679 29.3781 42.8956C28.9936 42.7199 28.6887 42.4614 28.4633 42.12C28.2413 41.7786 28.1302 41.3577 28.1302 40.8572C28.1302 40.4264 28.2098 40.0701 28.3689 39.7884C28.528 39.5066 28.7451 39.2812 29.0202 39.1122C29.2952 38.9432 29.6051 38.8156 29.9498 38.7294C30.2979 38.6399 30.6575 38.5753 31.0287 38.5355C31.4761 38.4891 31.839 38.4477 32.1175 38.4112C32.3959 38.3714 32.598 38.3118 32.724 38.2322C32.8532 38.1494 32.9179 38.0218 32.9179 37.8494V37.8196C32.9179 37.4451 32.8068 37.1551 32.5848 36.9496C32.3627 36.7441 32.0429 36.6413 31.6253 36.6413C31.1845 36.6413 30.8348 36.7375 30.5763 36.9297C30.3211 37.1219 30.1487 37.349 30.0592 37.6108L28.3788 37.3722C28.5114 36.9081 28.7301 36.5204 29.0351 36.2088C29.34 35.8939 29.7129 35.6586 30.1537 35.5028C30.5945 35.3438 31.0817 35.2642 31.6153 35.2642C31.9832 35.2642 32.3495 35.3073 32.714 35.3935C33.0786 35.4796 33.4117 35.6222 33.7133 35.821C34.0149 36.0166 34.2569 36.2834 34.4392 36.6214C34.6248 36.9595 34.7176 37.3821 34.7176 37.8892V43H32.9875V41.951H32.9278C32.8184 42.1631 32.6643 42.362 32.4655 42.5476C32.2699 42.7299 32.023 42.8774 31.7247 42.9901C31.4297 43.0994 31.0834 43.1541 30.6856 43.1541ZM31.153 41.8317C31.5142 41.8317 31.8274 41.7604 32.0926 41.6179C32.3577 41.4721 32.5616 41.2798 32.7041 41.0412C32.8499 40.8026 32.9229 40.5424 32.9229 40.2607V39.3608C32.8665 39.4072 32.7704 39.4503 32.6345 39.4901C32.5019 39.5298 32.3528 39.5646 32.1871 39.5945C32.0213 39.6243 31.8573 39.6508 31.6949 39.674C31.5325 39.6972 31.3916 39.7171 31.2723 39.7337C31.0038 39.7701 30.7635 39.8298 30.5514 39.9126C30.3393 39.9955 30.1719 40.1115 30.0493 40.2607C29.9266 40.4065 29.8653 40.5954 29.8653 40.8274C29.8653 41.1589 29.9863 41.4091 30.2282 41.5781C30.4702 41.7472 30.7784 41.8317 31.153 41.8317Z" fill="#5F5F5F"/>
</svg>
